<svg width="46" height="17" viewBox="0 0 46 17" fill="none" xmlns="http://www.w3.org/2000/svg">
<path d="M8.42 2.06V3.54H2.36V8.24H7.28V9.72H2.36V16H0.54V2.06H8.42ZM11.5581 3.26C11.2115 3.26 10.9181 3.14 10.6781 2.9C10.4381 2.66 10.3181 2.36667 10.3181 2.02C10.3181 1.67333 10.4381 1.38 10.6781 1.14C10.9181 0.899999 11.2115 0.779999 11.5581 0.779999C11.8915 0.779999 12.1715 0.899999 12.3981 1.14C12.6381 1.38 12.7581 1.67333 12.7581 2.02C12.7581 2.36667 12.6381 2.66 12.3981 2.9C12.1715 3.14 11.8915 3.26 11.5581 3.26ZM12.4381 5.04V16H10.6181V5.04H12.4381ZM17.36 1.2V16H15.54V1.2H17.36ZM22.6819 6.54V13C22.6819 13.5333 22.7952 13.9133 23.0219 14.14C23.2485 14.3533 23.6419 14.46 24.2019 14.46H25.5419V16H23.9019C22.8885 16 22.1285 15.7667 21.6219 15.3C21.1152 14.8333 20.8619 14.0667 20.8619 13V6.54H19.4419V5.04H20.8619V2.28H22.6819V5.04H25.5419V6.54H22.6819ZM37.747 10.1C37.747 10.4467 37.727 10.8133 37.687 11.2H28.927C28.9937 12.28 29.3604 13.1267 30.027 13.74C30.707 14.34 31.527 14.64 32.487 14.64C33.2737 14.64 33.927 14.46 34.447 14.1C34.9804 13.7267 35.3537 13.2333 35.567 12.62H37.527C37.2337 13.6733 36.647 14.5333 35.767 15.2C34.887 15.8533 33.7937 16.18 32.487 16.18C31.447 16.18 30.5137 15.9467 29.687 15.48C28.8737 15.0133 28.2337 14.3533 27.767 13.5C27.3004 12.6333 27.067 11.6333 27.067 10.5C27.067 9.36667 27.2937 8.37333 27.747 7.52C28.2004 6.66667 28.8337 6.01333 29.647 5.56C30.4737 5.09333 31.4204 4.86 32.487 4.86C33.527 4.86 34.447 5.08667 35.247 5.54C36.047 5.99333 36.6604 6.62 37.087 7.42C37.527 8.20667 37.747 9.1 37.747 10.1ZM35.867 9.72C35.867 9.02667 35.7137 8.43333 35.407 7.94C35.1004 7.43333 34.6804 7.05333 34.147 6.8C33.627 6.53333 33.047 6.4 32.407 6.4C31.487 6.4 30.7004 6.69333 30.047 7.28C29.407 7.86667 29.0404 8.68 28.947 9.72H35.867ZM41.9694 6.82C42.2894 6.19333 42.7427 5.70667 43.3294 5.36C43.9294 5.01333 44.656 4.84 45.5094 4.84V6.72H45.0294C42.9894 6.72 41.9694 7.82667 41.9694 10.04V16H40.1494V5.04H41.9694V6.82Z" fill="black"/>
</svg>
